<svg width="255" height="255" viewBox="0 0 255 255" fill="none" xmlns="http://www.w3.org/2000/svg">
<path d="M127.5 6.98828C73.7328 6.98828 30.1631 50.558 30.1631 104.325C30.1631 141.637 51.0209 173.851 81.8442 190.306L108.959 132.135H146.04L173.155 190.306C203.978 173.851 224.836 141.637 224.836 104.325C224.836 50.558 181.267 6.98828 127.5 6.98828Z" fill="url(#paint0_linear_145_936)"/>
<path d="M190.506 232.179C185.659 226.845 157.46 222.623 125.516 222.623C93.5725 222.623 67.3564 226.623 62.5098 231.957L108.113 133.062C114.061 134.84 119.348 135.729 125.516 135.729C131.685 135.729 139.175 134.84 145.123 133.062L190.506 232.179Z" fill="white"/>
<path d="M60.2912 237.583C60.0595 237.583 60.0595 237.583 59.8277 237.583C59.1324 237.351 58.9007 236.656 59.3642 235.961L108.032 131.672C108.264 131.208 108.959 130.745 109.655 131.208C110.35 131.44 110.582 132.135 110.118 132.83L61.45 237.12C61.2182 237.351 60.7547 237.583 60.2912 237.583Z" fill="#161616"/>
<path d="M194.709 237.583C194.245 237.583 193.782 237.351 193.55 236.888L144.881 132.598C144.65 131.903 144.881 131.44 145.345 130.976C146.04 130.744 146.504 130.976 146.967 131.44L195.636 235.729C195.867 236.424 195.636 236.888 195.172 237.351C194.94 237.583 194.94 237.583 194.709 237.583Z" fill="#161616"/>
<path d="M173.85 115.913C161.104 128.196 144.186 134.453 127.5 134.453C110.813 134.453 93.8954 128.196 81.1489 115.913H173.85Z" fill="white"/>
<path d="M127.5 236.148C162.869 236.148 191.542 233.482 191.542 230.195C191.542 226.907 162.869 224.241 127.5 224.241C92.1309 224.241 63.4585 226.907 63.4585 230.195C63.4585 233.482 92.1309 236.148 127.5 236.148Z" fill="#E2E2E2"/>
<path d="M127.5 237.14C95.115 237.14 62.5098 234.741 62.5098 230.195C62.5098 225.648 95.115 223.249 127.5 223.249C159.885 223.249 192.49 225.648 192.49 230.195C192.49 234.741 159.885 237.14 127.5 237.14ZM127.5 224.512C88.5059 224.512 64.7128 227.795 64.7128 230.195C64.7128 232.594 88.5059 235.877 127.5 235.877C166.494 235.877 190.287 232.594 190.287 230.195C190.287 227.795 166.494 224.512 127.5 224.512Z" fill="#161616"/>
<path d="M110.35 177.327H110.118C109.423 177.095 109.191 176.632 109.191 175.937L118.23 134.221C118.462 133.526 118.925 133.294 119.62 133.294C120.316 133.526 120.547 133.989 120.547 134.684L111.509 176.4C111.277 176.864 110.814 177.327 110.35 177.327Z" fill="#161616"/>
<path d="M105.252 200.502H105.02C104.325 200.271 104.093 199.807 104.093 199.112L108.033 180.572C108.264 179.876 108.728 179.645 109.423 179.645C110.118 179.876 110.35 180.34 110.35 181.035L106.41 199.575C106.41 200.039 105.947 200.502 105.252 200.502Z" fill="#161616"/>
<path d="M149.748 200.502C149.285 200.502 148.821 200.039 148.589 199.575L144.65 181.035C144.418 180.34 144.881 179.876 145.577 179.645C146.272 179.645 146.735 179.876 146.967 180.572L150.907 199.112C151.139 199.807 150.675 200.271 149.98 200.502C149.748 200.502 149.748 200.502 149.748 200.502Z" fill="#161616"/>
<path d="M144.65 177.327C144.186 177.327 143.723 176.864 143.491 176.4L134.452 134.684C134.221 133.989 134.684 133.526 135.379 133.294C136.075 133.294 136.538 133.526 136.77 134.221L145.808 175.937C146.04 176.632 145.577 177.095 144.881 177.327C144.881 177.327 144.881 177.327 144.65 177.327Z" fill="#161616"/>
<path d="M225.3 115.912H29.7C26.2237 115.912 23.2109 113.131 23.2109 109.423C23.2109 106.411 25.2967 103.861 28.3095 103.166L92.7371 88.1021H162.263L226.691 103.166C229.704 103.861 231.789 106.411 231.789 109.423C231.789 113.131 229.008 115.912 225.3 115.912Z" fill="white"/>
<path d="M157.628 78.8317H97.3716V62.609C97.3716 45.9227 110.813 32.481 127.5 32.481C144.186 32.481 157.628 45.9227 157.628 62.609V78.8317Z" fill="#56CCF2"/>
<path d="M157.628 81.1494H97.3717C95.9812 81.1494 95.0542 80.2224 95.0542 78.8319V62.6091C95.0542 44.7641 109.655 30.1636 127.5 30.1636C145.345 30.1636 159.945 44.7641 159.945 62.6091V78.8319C159.945 80.2224 159.018 81.1494 157.628 81.1494ZM99.6893 76.5143H155.31V62.6091C155.31 47.3134 142.795 34.7987 127.5 34.7987C112.204 34.7987 99.6893 47.3134 99.6893 62.6091V76.5143Z" fill="#161616"/>
<path d="M111.277 47.3135C111.045 47.3135 110.582 47.0817 110.35 47.0817C109.887 46.6182 109.887 45.9229 110.35 45.4594C114.985 41.0561 121.011 38.5068 127.5 38.5068C128.195 38.5068 128.659 38.9703 128.659 39.6656C128.659 40.3609 128.195 40.8244 127.5 40.8244C121.706 40.8244 116.144 43.1419 111.972 47.0817C111.972 47.0817 111.509 47.3135 111.277 47.3135Z" fill="#161616"/>
<path d="M105.484 56.8155H105.252C104.557 56.5837 104.325 55.8885 104.557 55.425C105.02 54.2662 105.252 53.1074 105.947 52.1804C106.179 51.7169 106.874 51.2534 107.569 51.7169C108.033 51.9486 108.496 52.6439 108.033 53.3392C107.569 54.2662 107.106 55.425 106.874 56.352C106.411 56.5837 105.947 56.8155 105.484 56.8155Z" fill="#161616"/>
<path d="M162.263 88.1022H92.7368V83.4671C92.7368 80.9178 94.8226 78.832 97.3719 78.832H157.628C160.177 78.832 162.263 80.9178 162.263 83.4671V88.1022Z" fill="white"/>
<path d="M185.439 60.2917C185.439 61.6822 184.512 62.6092 183.121 62.6092C181.731 62.6092 180.804 61.6822 180.804 60.2917C180.804 58.9011 181.731 57.9741 183.121 57.9741C184.512 57.9741 185.439 58.9011 185.439 60.2917Z" fill="#161616"/>
<path d="M185.438 75.3555C185.438 76.0508 184.975 76.5143 184.279 76.5143C183.584 76.5143 183.121 76.0508 183.121 75.3555C183.121 74.6603 183.584 74.1968 184.279 74.1968C184.975 74.1968 185.438 74.6603 185.438 75.3555Z" fill="#161616"/>
<path d="M201.661 54.4976C201.661 55.1929 201.198 55.6564 200.503 55.6564C199.807 55.6564 199.344 55.1929 199.344 54.4976C199.344 53.8024 199.807 53.3389 200.503 53.3389C201.198 53.3389 201.661 53.8024 201.661 54.4976Z" fill="#161616"/>
<path d="M55.6564 84.6256C55.6564 85.3208 55.1929 85.7843 54.4976 85.7843C53.8024 85.7843 53.3389 85.3208 53.3389 84.6256C53.3389 83.9303 53.8024 83.4668 54.4976 83.4668C55.1929 83.4668 55.6564 83.9303 55.6564 84.6256Z" fill="#161616"/>
<path d="M185.438 33.6402C185.438 34.3355 184.975 34.799 184.279 34.799C183.584 34.799 183.121 34.3355 183.121 33.6402C183.121 32.945 183.584 32.4814 184.279 32.4814C184.975 32.4814 185.438 32.945 185.438 33.6402Z" fill="#161616"/>
<path d="M81.1496 45.2276C81.1496 45.9229 80.6861 46.3864 79.9908 46.3864C79.2955 46.3864 78.832 45.9229 78.832 45.2276C78.832 44.5324 79.2955 44.0688 79.9908 44.0688C80.6861 44.0688 81.1496 44.5324 81.1496 45.2276Z" fill="#161616"/>
<path d="M108.96 17.4171C108.96 18.1123 108.496 18.5758 107.801 18.5758C107.106 18.5758 106.642 18.1123 106.642 17.4171C106.642 16.7218 107.106 16.2583 107.801 16.2583C108.496 16.2583 108.96 16.7218 108.96 17.4171Z" fill="#161616"/>
<path d="M60.2917 45.2276C60.2917 45.9229 59.8281 46.3864 59.1329 46.3864C58.4376 46.3864 57.9741 45.9229 57.9741 45.2276C57.9741 44.5324 58.4376 44.0688 59.1329 44.0688C59.8281 44.0688 60.2917 44.5324 60.2917 45.2276Z" fill="#161616"/>
<path d="M69.5617 75.3555C69.5617 76.0508 69.0982 76.5143 68.4029 76.5143C67.7076 76.5143 67.2441 76.0508 67.2441 75.3555C67.2441 74.6603 67.7076 74.1968 68.4029 74.1968C69.0982 74.1968 69.5617 74.6603 69.5617 75.3555Z" fill="#161616"/>
<path d="M155.31 25.5285C155.31 26.919 154.383 27.846 152.993 27.846C151.602 27.846 150.675 26.919 150.675 25.5285C150.675 24.138 151.602 23.2109 152.993 23.2109C154.383 23.2109 155.31 24.138 155.31 25.5285Z" fill="#161616"/>
<path d="M67.244 60.2917C67.244 61.6822 66.3169 62.6092 64.9264 62.6092C63.5359 62.6092 62.6089 61.6822 62.6089 60.2917C62.6089 58.9011 63.5359 57.9741 64.9264 57.9741C66.3169 57.9741 67.244 58.9011 67.244 60.2917Z" fill="#161616"/>
<path d="M157.628 76.5142H97.3716C93.4317 76.5142 90.4189 79.527 90.4189 83.4668V88.1018C90.4189 89.4924 91.346 90.4194 92.7365 90.4194H162.263C163.653 90.4194 164.58 89.4924 164.58 88.1018V83.4668C164.58 79.527 161.567 76.5142 157.628 76.5142ZM110.118 81.1492H117.071V85.7843H110.118V81.1492ZM107.8 85.7843H100.848V81.1492H107.8V85.7843ZM119.388 81.1492H126.341V85.7843H119.388V81.1492ZM128.658 81.1492H135.611V85.7843H128.658V81.1492ZM137.928 81.1492H144.881V85.7843H137.928V81.1492ZM147.199 81.1492H154.151V85.7843H147.199V81.1492ZM95.054 83.4668C95.054 82.0762 95.981 81.1492 97.3716 81.1492H98.5303V85.7843H95.054V83.4668ZM159.945 85.7843H156.469V81.1492H157.628C159.018 81.1492 159.945 82.0762 159.945 83.4668V85.7843Z" fill="#161616"/>
<path d="M141.405 78.8316H113.594V62.6088C113.594 54.961 119.852 48.7036 127.499 48.7036C135.147 48.7036 141.405 54.961 141.405 62.6088V78.8316Z" fill="#27AE60"/>
<path d="M141.405 81.1493H113.594C112.204 81.1493 111.277 80.2223 111.277 78.8318V62.609C111.277 53.5706 118.461 46.3862 127.5 46.3862C136.538 46.3862 143.722 53.5706 143.722 62.609V78.8318C143.722 80.2223 142.795 81.1493 141.405 81.1493ZM115.912 76.5142H139.087V62.609C139.087 56.1199 133.989 51.0213 127.5 51.0213C121.011 51.0213 115.912 56.1199 115.912 62.609V76.5142Z" fill="#161616"/>
<path d="M127.5 69.5615C131.34 69.5615 134.453 66.4487 134.453 62.6089C134.453 58.769 131.34 55.6562 127.5 55.6562C123.66 55.6562 120.547 58.769 120.547 62.6089C120.547 66.4487 123.66 69.5615 127.5 69.5615Z" fill="white"/>
<path d="M127.5 70.7203C123.097 70.7203 119.389 67.0122 119.389 62.6089C119.389 58.2056 123.097 54.4976 127.5 54.4976C131.903 54.4976 135.611 58.2056 135.611 62.6089C135.611 67.0122 131.903 70.7203 127.5 70.7203ZM127.5 56.8151C124.255 56.8151 121.706 59.3644 121.706 62.6089C121.706 65.8535 124.255 68.4028 127.5 68.4028C130.745 68.4028 133.294 65.8535 133.294 62.6089C133.294 59.3644 130.745 56.8151 127.5 56.8151Z" fill="#161616"/>
<path d="M129.817 64.9269C129.817 66.3174 128.89 67.2444 127.5 67.2444C126.109 67.2444 125.182 66.3174 125.182 64.9269C125.182 63.5364 126.109 62.6094 127.5 62.6094C128.89 62.6094 129.817 63.5364 129.817 64.9269Z" fill="#161616"/>
<path d="M227.385 100.848L162.726 85.7842C162.494 85.7842 162.263 85.7842 162.263 85.7842H92.7364C92.5047 85.7842 92.2729 85.7842 92.2729 85.7842L27.8454 100.848C23.9056 101.775 21.1245 105.252 21.1245 109.423C21.1245 114.29 25.0643 118.23 29.9312 118.23H225.531C230.398 118.23 234.338 114.29 234.338 109.423C234.106 105.252 231.325 101.775 227.385 100.848ZM28.7724 105.483L92.9682 90.4193H162.031L226.227 105.483C227.617 105.715 228.544 106.642 229.008 107.801H226.69C226.227 107.106 225.531 106.642 224.836 106.642C223.909 106.642 223.214 107.106 222.982 107.801H210.699C210.236 107.106 209.54 106.642 208.845 106.642C207.918 106.642 207.223 107.106 206.991 107.801H194.708C194.013 107.106 193.318 106.642 192.391 106.642C191.464 106.642 190.768 107.106 190.536 107.801H178.254C177.79 107.106 177.095 106.642 176.168 106.642C175.241 106.642 174.545 107.106 174.314 107.801H162.031C161.567 107.106 160.872 106.642 159.945 106.642C159.018 106.642 158.323 107.106 158.091 107.801H145.808C145.345 107.106 144.649 106.642 143.722 106.642C142.795 106.642 142.1 107.106 141.868 107.801H129.585C129.122 107.106 128.426 106.642 127.499 106.642C126.572 106.642 125.877 107.106 125.645 107.801H113.363C112.899 107.106 112.204 106.642 111.277 106.642C110.35 106.642 109.654 107.106 109.423 107.801H97.1397C96.6762 107.106 95.981 106.642 95.0539 106.642C94.1269 106.642 93.4317 107.106 93.1999 107.801H80.917C80.4535 107.106 79.7582 106.642 78.8312 106.642C77.9042 106.642 77.2089 107.106 76.9772 107.801H64.6942C64.2307 107.106 63.5354 106.642 62.6084 106.642C61.6814 106.642 60.9862 107.106 60.7544 107.801H48.4715C48.0079 107.106 47.3127 106.642 46.3857 106.642C45.4587 106.642 44.7634 107.106 44.5316 107.801H32.2487C31.7852 107.106 31.0899 106.642 30.1629 106.642C29.2359 106.642 28.5406 107.106 28.3089 107.801H25.9913C26.4548 106.642 27.3819 105.715 28.7724 105.483ZM225.3 113.595H29.6994C27.6136 113.595 25.9913 111.972 25.5278 110.118H28.0771C28.5406 110.814 29.2359 111.277 29.9312 111.277C30.8582 111.277 31.5534 110.814 31.7852 110.118H44.0681C44.5316 110.814 45.2269 111.277 45.9222 111.277C46.6174 111.277 47.5444 110.814 47.7762 110.118H60.0591C60.5226 110.814 61.2179 111.277 61.9132 111.277C62.6084 111.277 63.5354 110.814 63.7672 110.118H76.0501C76.5137 110.814 77.2089 111.277 77.9042 111.277C78.5994 111.277 79.5265 110.814 79.7582 110.118H92.0412C92.5047 110.814 93.1999 111.277 93.8952 111.277C94.5904 111.277 95.5175 110.814 95.7492 110.118H108.032C108.496 110.814 109.191 111.277 109.886 111.277C110.581 111.277 111.508 110.814 111.74 110.118H124.023C124.487 110.814 125.182 111.277 125.877 111.277C126.804 111.277 127.499 110.814 127.731 110.118H140.014C140.478 110.814 141.173 111.277 141.868 111.277C142.795 111.277 143.49 110.814 143.722 110.118H156.005C156.469 110.814 157.164 111.277 157.859 111.277C158.786 111.277 159.482 110.814 159.713 110.118H171.996C172.46 110.814 173.155 111.277 173.85 111.277C174.777 111.277 175.473 110.814 175.704 110.118H187.987C188.451 110.814 189.146 111.277 189.841 111.277C190.768 111.277 191.463 110.814 191.695 110.118H203.978C204.442 110.814 205.137 111.277 205.832 111.277C206.759 111.277 207.455 110.814 207.686 110.118H219.969C220.433 110.814 221.128 111.277 221.823 111.277C222.75 111.277 223.446 110.814 223.677 110.118H226.227C229.008 111.972 227.385 113.595 225.3 113.595Z" fill="#161616"/>
<path d="M236.424 237.583H201.661C200.966 237.583 200.502 237.12 200.502 236.424C200.502 235.729 200.966 235.266 201.661 235.266H236.424C237.12 235.266 237.583 235.729 237.583 236.424C237.583 237.12 237.12 237.583 236.424 237.583Z" fill="#161616"/>
<path d="M53.3388 237.583H18.5758C17.8805 237.583 17.417 237.12 17.417 236.424C17.417 235.729 17.8805 235.266 18.5758 235.266H53.3388C54.0341 235.266 54.4976 235.729 54.4976 236.424C54.4976 237.12 54.0341 237.583 53.3388 237.583Z" fill="#161616"/>
<path d="M220.201 89.2608C219.506 89.2608 219.042 88.7973 219.042 88.1021C219.042 84.8575 216.493 82.3082 213.249 82.3082C212.553 82.3082 212.09 81.8447 212.09 81.1495C212.09 80.4542 212.553 79.9907 213.249 79.9907C216.493 79.9907 219.042 77.4414 219.042 74.1969C219.042 73.5016 219.506 73.0381 220.201 73.0381C220.896 73.0381 221.36 73.5016 221.36 74.1969C221.36 77.4414 223.909 79.9907 227.154 79.9907C227.849 79.9907 228.313 80.4542 228.313 81.1495C228.313 81.8447 227.849 82.3082 227.154 82.3082C223.909 82.3082 221.36 84.8575 221.36 88.1021C221.36 88.7973 220.896 89.2608 220.201 89.2608ZM217.42 81.1495C218.579 81.8447 219.506 82.7717 220.201 83.9305C220.896 82.7717 221.824 81.8447 222.982 81.1495C221.824 80.4542 220.896 79.5272 220.201 78.3684C219.506 79.5272 218.579 80.4542 217.42 81.1495Z" fill="#161616"/>
<path d="M48.7033 76.514C49.9832 76.514 51.0208 75.4764 51.0208 74.1964C51.0208 72.9165 49.9832 71.8789 48.7033 71.8789C47.4233 71.8789 46.3857 72.9165 46.3857 74.1964C46.3857 75.4764 47.4233 76.514 48.7033 76.514Z" fill="white"/>
<path d="M48.7034 77.6728C48.0081 77.6728 47.5446 77.2093 47.5446 76.5141C47.5446 75.8188 47.0811 75.3553 46.3858 75.3553C45.6906 75.3553 45.2271 74.8918 45.2271 74.1965C45.2271 73.5013 45.6906 73.0378 46.3858 73.0378C47.0811 73.0378 47.5446 72.5742 47.5446 71.879C47.5446 71.1837 48.0081 70.7202 48.7034 70.7202C49.3986 70.7202 49.8621 71.1837 49.8621 71.879C49.8621 72.5742 50.3256 73.0378 51.0209 73.0378C51.7161 73.0378 52.1797 73.5013 52.1797 74.1965C52.1797 74.8918 51.7161 75.3553 51.0209 75.3553C50.3256 75.3553 49.8621 75.8188 49.8621 76.5141C49.8621 77.2093 49.3986 77.6728 48.7034 77.6728Z" fill="#161616"/>
<path d="M171.533 39.4334C172.813 39.4334 173.85 38.3958 173.85 37.1159C173.85 35.8359 172.813 34.7983 171.533 34.7983C170.253 34.7983 169.215 35.8359 169.215 37.1159C169.215 38.3958 170.253 39.4334 171.533 39.4334Z" fill="white"/>
<path d="M171.533 40.5923C170.838 40.5923 170.374 40.1287 170.374 39.4335C170.374 38.7382 169.911 38.2747 169.215 38.2747C168.52 38.2747 168.057 37.8112 168.057 37.1159C168.057 36.4207 168.52 35.9572 169.215 35.9572C169.911 35.9572 170.374 35.4937 170.374 34.7984C170.374 34.1032 170.838 33.6396 171.533 33.6396C172.228 33.6396 172.692 34.1032 172.692 34.7984C172.692 35.4937 173.155 35.9572 173.85 35.9572C174.546 35.9572 175.009 36.4207 175.009 37.1159C175.009 37.8112 174.546 38.2747 173.85 38.2747C173.155 38.2747 172.692 38.7382 172.692 39.4335C172.692 40.1287 172.228 40.5923 171.533 40.5923Z" fill="#161616"/>
<path d="M199.343 69.5613C200.623 69.5613 201.661 68.5237 201.661 67.2438C201.661 65.9639 200.623 64.9263 199.343 64.9263C198.063 64.9263 197.026 65.9639 197.026 67.2438C197.026 68.5237 198.063 69.5613 199.343 69.5613Z" fill="white"/>
<path d="M199.344 70.7202C198.648 70.7202 198.185 70.2567 198.185 69.5614C198.185 68.8661 197.721 68.4026 197.026 68.4026C196.331 68.4026 195.867 67.9391 195.867 67.2439C195.867 66.5486 196.331 66.0851 197.026 66.0851C197.721 66.0851 198.185 65.6216 198.185 64.9263C198.185 64.2311 198.648 63.7676 199.344 63.7676C200.039 63.7676 200.502 64.2311 200.502 64.9263C200.502 65.6216 200.966 66.0851 201.661 66.0851C202.356 66.0851 202.82 66.5486 202.82 67.2439C202.82 67.9391 202.356 68.4026 201.661 68.4026C200.966 68.4026 200.502 68.8661 200.502 69.5614C200.502 70.2567 200.039 70.7202 199.344 70.7202Z" fill="#161616"/>
<path d="M74.1963 33.6398C73.5011 33.6398 73.0376 33.1762 73.0376 32.481C73.0376 29.2364 70.4883 26.6871 67.2437 26.6871C66.5485 26.6871 66.085 26.2236 66.085 25.5284C66.085 24.8331 66.5485 24.3696 67.2437 24.3696C70.4883 24.3696 73.0376 21.8203 73.0376 18.5758C73.0376 17.8805 73.5011 17.417 74.1963 17.417C74.8916 17.417 75.3551 17.8805 75.3551 18.5758C75.3551 21.8203 77.9044 24.3696 81.149 24.3696C81.8442 24.3696 82.3077 24.8331 82.3077 25.5284C82.3077 26.2236 81.8442 26.6871 81.149 26.6871C77.9044 26.6871 75.3551 29.2364 75.3551 32.481C75.3551 33.1762 74.8916 33.6398 74.1963 33.6398ZM71.4153 25.5284C72.5741 26.2236 73.5011 27.1507 74.1963 28.3094C74.8916 27.1507 75.8186 26.2236 76.9774 25.5284C75.8186 24.8331 74.8916 23.9061 74.1963 22.7473C73.5011 23.9061 72.5741 24.8331 71.4153 25.5284Z" fill="#161616"/>
<path d="M175.937 114.986C175.705 114.059 174.778 113.595 173.851 113.595H81.1492C80.2222 113.595 79.2952 114.059 79.0634 114.986C78.5999 115.913 78.8317 116.84 79.5269 117.535C92.2734 130.05 109.423 136.771 127.5 136.771C145.577 136.771 162.727 130.05 175.473 117.535C176.168 116.84 176.4 115.913 175.937 114.986ZM106.41 128.659H148.59C141.869 130.977 134.684 132.136 127.5 132.136C120.084 132.136 113.131 130.977 106.41 128.659ZM154.383 126.342H100.617C95.9814 124.256 91.3464 121.475 87.4066 118.23H167.825C163.654 121.475 159.25 124.256 154.383 126.342Z" fill="#161616"/>
<defs>
<linearGradient id="paint0_linear_145_936" x1="85.3305" y1="20.3406" x2="175.622" y2="190.506" gradientUnits="userSpaceOnUse">
<stop stop-color="#E2E2E2"/>
<stop offset="1" stop-color="#B6B6B6"/>
</linearGradient>
</defs>
</svg>
