<svg width="24" height="15" viewBox="0 0 24 15" fill="none" xmlns="http://www.w3.org/2000/svg">
<path d="M8.86975 12.2515L5.10307 8.48459L22.394 8.48459C23.0969 8.48459 23.6667 7.91475 23.6667 7.21186C23.6667 6.50898 23.0969 5.93914 22.394 5.93914L5.10316 5.93914L8.86975 2.17255C9.11827 1.92403 9.24258 1.5983 9.24258 1.27265C9.24258 0.947 9.11836 0.621182 8.86975 0.372746C8.37271 -0.124296 7.5669 -0.124296 7.06986 0.372746L1.13081 6.31171C1.10102 6.34149 1.07294 6.3728 1.04621 6.40538C1.03433 6.4198 1.02407 6.43508 1.01295 6.44976C0.999206 6.46817 0.984952 6.48616 0.972225 6.50525C0.960176 6.52323 0.94974 6.54199 0.938625 6.5604C0.928358 6.57754 0.917582 6.59425 0.908164 6.6119C0.898067 6.63082 0.889582 6.65017 0.880503 6.66943C0.871849 6.68784 0.8626 6.706 0.854794 6.72483C0.847073 6.74342 0.840879 6.76234 0.834176 6.78126C0.826879 6.80154 0.819073 6.82165 0.812794 6.84243C0.807109 6.86119 0.803037 6.88011 0.7982 6.89903C0.79277 6.92041 0.786831 6.94154 0.782503 6.96326C0.778176 6.98489 0.775716 7.00679 0.772576 7.02842C0.769776 7.04777 0.766128 7.06677 0.764176 7.08637C0.760273 7.126 0.758406 7.16571 0.758152 7.20533C0.758152 7.20745 0.757813 7.20966 0.757813 7.21178C0.757813 7.21458 0.758237 7.21738 0.758237 7.22026C0.758491 7.25929 0.760273 7.29833 0.764176 7.3371C0.766128 7.35696 0.769776 7.37639 0.772661 7.3959C0.7758 7.41737 0.778261 7.43892 0.782419 7.46022C0.786746 7.48219 0.79277 7.50349 0.798285 7.52504C0.803037 7.54379 0.807109 7.56254 0.812709 7.58104C0.819073 7.602 0.826879 7.62228 0.834261 7.64281C0.840964 7.66148 0.847073 7.68023 0.854709 7.69872C0.8626 7.71781 0.871849 7.73597 0.880673 7.75455C0.889667 7.77365 0.898152 7.79291 0.908164 7.81166C0.917667 7.82931 0.928443 7.84611 0.938709 7.86333C0.94974 7.88183 0.960176 7.90049 0.972225 7.9184C0.984782 7.93732 0.998782 7.95497 1.01244 7.97312C1.02373 7.98823 1.03425 8.00376 1.04638 8.01852C1.07175 8.04949 1.09873 8.07918 1.1269 8.10761C1.12826 8.10897 1.12936 8.11041 1.13064 8.11177L7.06978 14.0513C7.56682 14.5483 8.37262 14.5484 8.86967 14.0513C9.36679 13.5544 9.36662 12.7485 8.86975 12.2515Z" fill="white"/>
</svg>
