<svg width="16" height="15" viewBox="0 0 16 15" fill="none" xmlns="http://www.w3.org/2000/svg">
<path d="M7.81651 0.423147C7.88614 0.262571 8.11386 0.26257 8.18349 0.423146L10.1255 4.90154C10.1545 4.96837 10.2175 5.01416 10.29 5.02107L15.1493 5.48411C15.3235 5.50072 15.3939 5.71729 15.2627 5.83313L11.6036 9.06398C11.549 9.11219 11.5249 9.18628 11.5408 9.25738L12.602 14.0219C12.6401 14.1928 12.4558 14.3266 12.3051 14.2377L8.10168 11.756C8.03895 11.719 7.96105 11.719 7.89832 11.756L3.69489 14.2377C3.54417 14.3266 3.35994 14.1928 3.39799 14.0219L4.45922 9.25738C4.47506 9.18628 4.45099 9.11219 4.39638 9.06398L0.737282 5.83313C0.606083 5.71729 0.676452 5.50072 0.850686 5.48411L5.71 5.02107C5.78252 5.01416 5.84554 4.96837 5.87452 4.90154L7.81651 0.423147Z" fill="#E98D4B"/>
</svg>
